<?xml version="1.0" encoding="UTF-8"?><svg id="Layer_2" xmlns="http://www.w3.org/2000/svg" viewBox="0 0 296.15 363.09"><defs><style>.cls-1{fill:#fff;stroke:#2d3047;stroke-miterlimit:10;stroke-width:2px;}</style></defs><g id="Layer_1-2"><g><g><path class="cls-1" d="M148.04,4.13c16,0,30.3-3.06,30.3-3.06,39.83,27.57,76.6,40.51,76.6,40.51,35.06,10.21,40.17,110.64,40.17,110.64-16,4.77-55.83,9.19-55.83,9.19l-6.13-29.28c-12.94,124.26,6.13,225.02,6.13,225.02-13.96,3.4-86.13,4.94-86.13,4.94h-6.13"/><path class="cls-1" d="M254.21,41.58c1.7,18.31-1.69,31.21-5.23,39.74-3.71,8.94-7.59,13.8-11.3,25.34-3.57,11.13-4.43,20.84-4.6,27.26"/><path class="cls-1" d="M194.59,11.67s-16.08,6.42-46.55,6.42"/></g><g><path class="cls-1" d="M148.1,4.13c-16,0-30.3-3.06-30.3-3.06C77.97,28.64,41.21,41.58,41.21,41.58,6.14,51.79,1.04,152.22,1.04,152.22c16,4.77,55.83,9.19,55.83,9.19l6.13-29.28c12.94,124.26-6.13,225.02-6.13,225.02,13.96,3.4,86.13,4.94,86.13,4.94h6.13"/><path class="cls-1" d="M41.94,41.58c-1.7,18.31,1.69,31.21,5.23,39.74,3.71,8.94,7.59,13.8,11.3,25.34,3.57,11.13,4.43,20.84,4.6,27.26"/><path class="cls-1" d="M101.56,11.67s16.08,6.42,46.55,6.42"/></g></g></g></svg>